<svg width="285" height="224" viewBox="0 0 285 224" fill="none" xmlns="http://www.w3.org/2000/svg">
<path fill-rule="evenodd" clip-rule="evenodd" d="M114.338 14.4238C93.3771 26.516 89.3364 29.1362 89.3364 30.637C89.3364 32.1321 93.0044 34.5548 111.525 45.2978C139.719 61.6511 141.389 62.4539 144.812 61.3022C146.252 60.8178 158.323 54.1531 171.636 46.4922C192.814 34.3058 195.842 32.3199 195.842 30.6217C195.842 28.921 192.744 26.9029 170.853 14.34C149.762 2.2366 145.355 0 142.601 0C139.842 0 135.482 2.22451 114.338 14.4238ZM84.8865 37.0824C83.8707 37.7087 83.6544 42.1464 83.464 66.2622C83.2413 94.4868 83.2534 94.7302 85.0777 98.2943C86.8302 101.719 88.076 102.551 111.893 116.227C125.63 124.116 137.327 130.569 137.886 130.569C140.267 130.569 140.572 127.081 140.572 99.8458C140.572 73.9069 140.475 72.0435 138.964 68.9646C137.48 65.9406 135.657 64.7106 115.363 53.0457C84.6445 35.3882 86.2606 36.2345 84.8865 37.0824ZM194.966 38.4856C192.711 39.7051 181.179 46.3238 169.341 53.1948C149.56 64.676 147.688 65.9527 146.212 68.9646C144.703 72.0435 144.606 73.923 144.606 100.042C144.606 133.454 144.311 132.328 152.025 128.344C165.795 121.23 198.288 101.74 199.809 99.6822C201.428 97.4923 201.499 96.3382 201.721 68.452C201.94 40.877 201.643 36.2684 199.646 36.2692C199.329 36.2692 197.223 37.267 194.966 38.4856ZM167.608 176.308C167.85 185.064 168.262 199.257 168.522 207.85L168.997 223.473L174.182 222.989C177.034 222.723 179.715 222.291 180.141 222.028C180.583 221.755 180.915 216.068 180.915 208.797V196.045L187.773 195.474L194.632 194.902L194.62 190.744C194.601 184.579 194.224 184.28 187.052 184.741L180.915 185.134V178.822C180.915 171.635 180.092 172.318 190.194 171.129L195.842 170.465V166.032V161.599L191.404 161.075C188.963 160.786 182.512 160.514 177.068 160.47L167.169 160.39L167.608 176.308ZM250.984 163.759C248.614 165.614 246.43 167.495 246.131 167.94C245.465 168.931 249.187 176.474 250.54 176.873C254.695 178.099 254.855 178.24 252.927 178.983C250.332 179.982 250.683 180.762 253.456 180.154C256.479 179.49 257.327 180.829 254.654 182.045C253.524 182.56 252.726 183.248 252.881 183.574C253.035 183.9 254.416 186.622 255.948 189.623L258.736 195.079L252.864 206.842C249.635 213.312 247.103 218.686 247.237 218.785C247.371 218.884 249.16 220.098 251.211 221.483L254.942 224L260.314 215.94C263.269 211.506 265.987 208.065 266.354 208.292C266.722 208.519 268.93 212.006 271.262 216.041C273.593 220.076 275.986 223.564 276.58 223.791C278.08 224.367 283.386 220.159 283.386 218.394C283.386 217.597 280.979 212.291 278.037 206.601L272.687 196.256L268.354 195.162C265.971 194.56 264.022 193.812 264.022 193.498C264.022 193.186 266.2 193.087 268.863 193.279C273.919 193.645 275.486 192.487 271.889 191.043C270.152 190.345 270.172 190.312 272.324 190.262C274.383 190.216 274.923 189.472 278.641 181.547C280.876 176.782 283.222 171.856 283.853 170.601C284.484 169.346 285 167.807 285 167.181C285 166.076 278.988 161.196 277.626 161.196C277.254 161.196 275.449 164.188 273.615 167.846C271.781 171.503 269.371 176.056 268.258 177.965L266.236 181.434L264.892 179.174C264.153 177.93 261.943 173.351 259.982 168.996C258.021 164.642 256.164 160.923 255.855 160.733C255.547 160.543 253.356 161.905 250.984 163.759ZM1.24579 162.204C0.893187 162.758 0.468786 176.595 0.302573 192.952L0 222.693L6.34272 222.168C9.83078 221.879 15.4078 221.444 18.7361 221.204C22.0644 220.963 25.9672 220.584 27.4098 220.363L30.0321 219.96V215.055V210.15L21.5601 210.526L13.0881 210.903V206.16C13.0881 202.138 12.7823 201.135 11.0709 199.551C8.73506 197.388 8.47687 196.489 10.4045 197.228C11.4195 197.617 11.6285 197.417 11.246 196.423C10.9668 195.695 11.0855 194.885 11.5099 194.623C12.725 193.872 12.4135 192.782 10.8692 192.379C9.52417 192.028 9.52417 192.006 10.8692 191.917C12.161 191.832 12.2812 190.521 12.2812 176.51V161.196H7.08423C3.80677 161.196 1.65002 161.569 1.24579 162.204ZM34.0947 163.138C33.688 164.205 33.0998 169.113 32.7876 174.044C32.2365 182.75 32.276 183.072 34.152 185.176C35.2146 186.367 35.4397 186.847 34.6522 186.244C33.8647 185.64 33.0135 185.353 32.7601 185.605C32.0033 186.362 33.9769 204.814 35.2662 209.036C37.9862 217.943 41.4718 220.834 50.2496 221.461C56.7061 221.923 59.6608 220.636 63.1295 215.853C66.6305 211.024 66.315 209.193 61.1132 204.161C58.6821 201.808 56.368 199.883 55.9719 199.883C55.5757 199.883 55.0287 201.273 54.7568 202.971C54.2089 206.391 51.7254 209.196 49.8728 208.486C47.4079 207.541 44.2248 198.064 44.4806 192.432C44.5976 189.852 41.538 184.654 38.7954 182.772C36.951 181.506 36.98 181.495 39.7145 182.419C41.2677 182.944 42.9532 183.64 43.4607 183.966C44.7573 184.799 45.1753 182.522 45.8321 171.07L46.3977 161.196H40.6157C35.2485 161.196 34.7805 161.336 34.0947 163.138ZM70.8762 163.413C70.6382 164.631 70.2041 178.468 69.912 194.159L69.3819 222.689L76.1321 222.164C79.8445 221.875 85.7862 221.439 89.3364 221.195C99.9046 220.47 99.4221 220.763 99.4221 215.074V210.146L91.4382 210.53L83.4552 210.914L82.9751 208.018C82.7112 206.426 82.4918 203.955 82.4869 202.529C82.4805 200.533 81.9665 199.658 80.2592 198.732C78.827 197.956 78.5099 197.519 79.3652 197.498C80.9894 197.458 82.1819 193.443 80.82 192.602C80.2148 192.228 80.1753 191.911 80.7102 191.72C81.2177 191.538 81.7745 185.476 82.1271 176.308L82.7072 161.196H77.0091C71.4354 161.196 71.3006 161.245 70.8762 163.413ZM104.175 162.973C103.652 163.95 102.972 168.936 102.665 174.055L102.107 183.361L104.597 185.648C106.455 187.355 106.581 187.611 105.092 186.656C103.995 185.952 102.898 185.376 102.655 185.376C101.827 185.376 103.373 202.337 104.659 207.366C106.097 212.993 108.891 217.717 111.975 219.735C113.238 220.562 116.352 221.235 119.986 221.468C125.093 221.796 126.331 221.602 128.772 220.094C131.759 218.251 134.457 214.56 135.298 211.167C135.717 209.474 135.022 208.387 130.944 204.362C128.275 201.728 125.98 199.734 125.844 199.929C125.708 200.126 125.038 201.895 124.355 203.861C122.751 208.477 121.068 209.603 118.815 207.566C116.812 205.755 114.524 198.394 114.554 193.859C114.579 190.009 112.543 186.356 108.439 182.889L105.474 180.385L108.298 181.705C109.851 182.43 111.792 183.396 112.612 183.852C113.432 184.309 114.216 184.566 114.355 184.424C114.596 184.177 116.366 164.764 116.366 162.362C116.366 161.457 115.11 161.196 110.746 161.196C105.779 161.196 105.016 161.403 104.175 162.973ZM200.541 162.204C199.816 163.344 198.591 220.851 199.268 221.958C199.514 222.361 202.747 222.415 206.65 222.084C210.469 221.759 216.783 221.256 220.683 220.965C228.796 220.359 229.296 219.961 229.315 214.084L229.327 210.15L220.946 210.522L212.564 210.895L212.021 205.392C211.6 201.118 211.129 199.701 209.914 199.052C208.201 198.136 207.729 196.474 209.357 197.095C210.006 197.343 210.426 196.617 210.535 195.055C210.636 193.607 210.311 192.625 209.728 192.617C209.12 192.609 209.207 192.318 209.956 191.845C210.934 191.226 211.216 188.284 211.456 176.14L211.752 161.196H206.467C203.118 161.196 200.947 161.565 200.541 162.204ZM237.799 162.002L232.151 162.405V180.943C232.151 196.845 232.319 199.443 233.338 199.219C234.234 199.023 234.161 199.362 233.038 200.601C231.692 202.086 231.606 203.151 232.138 211.743C232.461 216.967 232.853 221.455 233.01 221.715C233.166 221.975 235.306 221.824 237.765 221.379L242.236 220.57V215.868C242.236 212.651 241.918 211.163 241.228 211.155C240.558 211.147 240.627 210.886 241.43 210.379C242.428 209.749 242.687 206.638 242.913 192.58L243.186 175.544L240.493 176.033L237.799 176.521L240.411 175.165C241.849 174.418 243.193 173.238 243.397 172.54C243.905 170.812 244.229 162.079 243.795 161.813C243.603 161.695 240.905 161.781 237.799 162.002ZM55.863 176.711C55.8735 191.521 56.2091 195.048 57.6074 195.048C58.0253 195.048 58.102 194.595 57.7776 194.04C57.4533 193.486 57.9624 193.71 58.9081 194.539C59.8545 195.367 60.5524 196.456 60.4588 196.957C60.366 197.458 60.6953 197.794 61.1907 197.702C61.6869 197.611 62.9302 198.428 63.9542 199.516C64.9773 200.605 66.1504 201.495 66.5603 201.495C67.4124 201.495 66.8629 164.304 65.9907 162.895C65.6873 162.404 63.2821 162.002 60.6452 162.002H55.8517L55.863 176.711ZM125.556 164.085C125.025 166.197 125.643 190.074 126.306 193.033C126.504 193.919 127.043 194.563 127.504 194.464C127.965 194.365 130.148 195.907 132.357 197.889C134.565 199.873 136.545 201.495 136.758 201.495C137.24 201.495 136.627 170.09 136.054 165.428L135.632 162.002H130.856C126.392 162.002 126.045 162.139 125.556 164.085ZM130.083 197.465C130.083 197.909 130.468 198.271 130.937 198.271C131.407 198.271 131.567 197.909 131.293 197.465C131.019 197.022 130.635 196.659 130.439 196.659C130.243 196.659 130.083 197.022 130.083 197.465Z" fill="#F2F2F2"/>
</svg>
