<svg width="196" height="37" viewBox="0 0 196 37" fill="none" xmlns="http://www.w3.org/2000/svg">
<path fill-rule="evenodd" clip-rule="evenodd" d="M115.267 9.25914C115.434 14.3519 115.717 22.6078 115.896 27.6058L116.222 36.6934L119.788 36.4121C121.75 36.2574 123.594 36.0056 123.887 35.8528C124.19 35.6943 124.419 32.3864 124.419 28.1567V20.7391L129.135 20.4071L133.852 20.0748L133.844 17.6557C133.831 14.0701 133.572 13.8962 128.639 14.1639L124.419 14.3927V10.7214C124.419 6.54093 123.853 6.93803 130.8 6.24652L134.684 5.86022V3.28172V0.703226L131.632 0.398025C129.954 0.230189 125.517 0.0717286 121.773 0.0464125L114.966 0L115.267 9.25914ZM172.607 1.95965C170.977 3.0384 169.474 4.13263 169.269 4.39141C168.811 4.96806 171.371 9.35571 172.301 9.58778C175.159 10.3008 175.269 10.3829 173.943 10.8147C172.158 11.396 172.4 11.8494 174.306 11.4959C176.386 11.11 176.969 11.8887 175.13 12.5962C174.353 12.8953 173.804 13.2957 173.911 13.4851C174.017 13.6749 174.967 15.2581 176.021 17.004L177.938 20.1774L173.9 27.0198C171.679 30.783 169.937 33.9091 170.029 33.9668C170.122 34.0244 171.352 34.7305 172.763 35.5359L175.329 37L179.023 32.3118C181.055 29.7329 182.924 27.731 183.177 27.8632C183.43 27.995 184.948 30.0235 186.552 32.3704C188.155 34.7173 189.801 36.7464 190.209 36.8786C191.241 37.2133 194.89 34.7661 194.89 33.7389C194.89 33.2757 193.234 30.189 191.211 26.8796L187.532 20.8624L184.553 20.2257C182.913 19.8755 181.573 19.4404 181.573 19.2581C181.573 19.0762 183.071 19.019 184.902 19.1306C188.38 19.3434 189.457 18.6697 186.983 17.8296C185.789 17.4241 185.802 17.4044 187.283 17.3758C188.699 17.3486 189.07 16.9159 191.627 12.3065C193.164 9.53434 194.777 6.6694 195.211 5.93945C195.645 5.2095 196 4.31405 196 3.94978C196 3.30703 191.865 0.468817 190.929 0.468817C190.673 0.468817 189.432 2.20907 188.17 4.33656C186.909 6.46405 185.252 9.1124 184.487 10.2226L183.096 12.2408L182.171 10.9258C181.663 10.2024 180.143 7.53858 178.794 5.00556C177.446 2.47301 176.169 0.309883 175.957 0.199242C175.745 0.0886008 174.238 0.880904 172.607 1.95965ZM0.85675 1.05484C0.614262 1.37739 0.322393 9.42557 0.208085 18.9402L0 36.24L4.36201 35.9344C6.76082 35.7661 10.5962 35.5134 12.8852 35.3737C15.1741 35.2335 17.8581 35.0132 18.8503 34.8842L20.6537 34.6498V31.7971V28.9438L14.8273 29.1628L9.00092 29.3817V26.6232C9.00092 24.2833 8.79062 23.7001 7.61369 22.7789C6.00727 21.5206 5.8297 20.9974 7.15534 21.4273C7.8534 21.6537 7.99712 21.5375 7.7341 20.9589C7.5421 20.5356 7.62368 20.0644 7.91555 19.9121C8.75122 19.4756 8.53703 18.8413 7.47496 18.6069C6.54996 18.403 6.54996 18.3898 7.47496 18.3383C8.36335 18.2886 8.44603 17.5263 8.44603 9.37635V0.468817H4.87196C2.61799 0.468817 1.13475 0.685411 0.85675 1.05484ZM23.4476 1.5982C23.1679 2.21891 22.7634 5.07401 22.5486 7.94177C22.1697 13.0059 22.1968 13.1935 23.487 14.4171C24.2178 15.11 24.3726 15.3894 23.831 15.0383C23.2894 14.6871 22.704 14.5202 22.5298 14.667C22.0093 15.1072 23.3666 25.8403 24.2533 28.2959C26.1238 33.4768 28.521 35.1585 34.5576 35.5232C38.9979 35.7919 41.0299 35.0432 43.4154 32.2612C45.8231 29.4525 45.6061 28.3874 42.0287 25.4601C40.3568 24.0916 38.7654 22.972 38.4929 22.972C38.2205 22.972 37.8443 23.7803 37.6573 24.7681C37.2805 26.7573 35.5725 28.3888 34.2985 27.9757C32.6033 27.4263 30.4143 21.9139 30.5902 18.6378C30.6706 17.1372 28.5665 14.1133 26.6804 13.0191C25.4119 12.2825 25.4319 12.276 27.3124 12.8137C28.3806 13.1189 29.5397 13.524 29.8888 13.7134C30.7805 14.1977 31.0679 12.8733 31.5196 6.21183L31.9086 0.468817H27.9322C24.2411 0.468817 23.9192 0.549921 23.4476 1.5982ZM48.7429 1.75806C48.5792 2.46692 48.2807 10.5151 48.0798 19.6425L47.7153 36.2377L52.3575 35.932C54.9106 35.7642 58.9968 35.5106 61.4383 35.3685C68.7063 34.9466 68.3745 35.1172 68.3745 31.8078V28.9415L62.8838 29.1647L57.3937 29.3883L57.0636 27.7038C56.8821 26.7774 56.7312 25.3405 56.7278 24.5107C56.7234 23.3499 56.3699 22.8408 55.1958 22.3026C54.2109 21.8511 53.9928 21.5965 54.581 21.5844C55.698 21.5614 56.5181 19.2257 55.5814 18.7368C55.1653 18.5192 55.1381 18.335 55.506 18.2234C55.855 18.1179 56.2379 14.5915 56.4804 9.25914L56.8793 0.468817H52.9607C49.1275 0.468817 49.0348 0.496946 48.7429 1.75806ZM71.6434 1.5021C71.2833 2.0703 70.8161 4.97087 70.6046 7.94833L70.2206 13.3613L71.933 14.6918C73.211 15.6848 73.2975 15.8334 72.2738 15.2778C71.5197 14.8685 70.765 14.5333 70.598 14.5333C70.0286 14.5333 71.0913 24.3991 71.9758 27.3245C72.9651 30.5974 74.8867 33.3451 77.0076 34.519C77.876 35 80.0178 35.392 82.5165 35.5274C86.029 35.7178 86.8802 35.6053 88.5593 34.7281C90.6135 33.6559 92.4685 31.5087 93.0467 29.5355C93.3353 28.5505 92.857 27.9185 90.0525 25.5773C88.2169 24.0452 86.6388 22.8849 86.5451 22.9988C86.4518 23.1132 85.9913 24.1422 85.5213 25.2857C84.4181 27.9706 83.2606 28.6255 81.7114 27.4408C80.3341 26.3874 78.7605 22.1057 78.781 19.4676C78.7982 17.2281 77.3982 15.1034 74.5754 13.087L72.5362 11.6304L74.4783 12.3979C75.5465 12.8198 76.8816 13.3819 77.4453 13.6473C78.0091 13.9126 78.5485 14.0622 78.6439 13.9797C78.8098 13.8362 80.0273 2.54381 80.0273 1.14673C80.0273 0.620252 79.1633 0.468817 76.1624 0.468817C72.7465 0.468817 72.2216 0.588839 71.6434 1.5021ZM137.916 1.05484C137.417 1.71822 136.575 35.1683 137.04 35.812C137.21 36.0464 139.433 36.0783 142.117 35.8856C144.743 35.6967 149.086 35.4037 151.768 35.2344C157.347 34.8824 157.691 34.6508 157.704 31.2321L157.712 28.9438L151.949 29.1604L146.184 29.377L145.811 26.176C145.521 23.6903 145.197 22.8661 144.362 22.4882C143.184 21.9556 142.859 20.989 143.979 21.3499C144.425 21.4943 144.714 21.0719 144.789 20.1634C144.858 19.3214 144.635 18.7499 144.234 18.7457C143.816 18.741 143.876 18.5713 144.391 18.2961C145.064 17.9365 145.257 16.2248 145.423 9.16115L145.626 0.468817H141.992C139.688 0.468817 138.195 0.683536 137.916 1.05484ZM163.539 0.937635L159.654 1.17204V11.9548C159.654 21.2046 159.77 22.7161 160.471 22.5857C161.087 22.4713 161.037 22.6687 160.265 23.3893C159.339 24.2533 159.28 24.8726 159.646 29.8702C159.868 32.9091 160.138 35.5195 160.245 35.6709C160.353 35.8223 161.825 35.7342 163.515 35.4754L166.591 35.0047V32.2701C166.591 30.3986 166.371 29.5331 165.897 29.5285C165.436 29.5238 165.484 29.3719 166.036 29.077C166.723 28.7108 166.901 26.9007 167.056 18.7241L167.244 8.8147L165.392 9.0988L163.539 9.38291L165.335 8.59389C166.324 8.15976 167.248 7.47295 167.389 7.06695C167.738 6.06228 167.961 0.982179 167.663 0.827469C167.531 0.759022 165.675 0.80871 163.539 0.937635ZM38.418 9.49355C38.4253 18.1081 38.6561 20.1591 39.6177 20.1591C39.9052 20.1591 39.9579 19.8957 39.7348 19.5731C39.5117 19.251 39.8619 19.3814 40.5122 19.8633C41.1631 20.3453 41.6431 20.9782 41.5787 21.2698C41.5149 21.5614 41.7413 21.7564 42.082 21.7034C42.4233 21.6505 43.2783 22.1254 43.9825 22.7583C44.6861 23.3916 45.4929 23.9097 45.7748 23.9097C46.3608 23.9097 45.9829 2.27657 45.3831 1.45661C45.1744 1.1711 43.5203 0.937635 41.7069 0.937635H38.4103L38.418 9.49355ZM86.3475 2.14907C85.9824 3.37784 86.4074 17.2661 86.863 18.9871C86.999 19.5028 87.3702 19.8774 87.687 19.8197C88.0039 19.7621 89.5054 20.6589 91.0241 21.8122C92.5429 22.966 93.9046 23.9097 94.0511 23.9097C94.3829 23.9097 93.9612 5.64222 93.5667 2.93011L93.2765 0.937635H89.9921C86.9224 0.937635 86.6838 1.01687 86.3475 2.14907ZM89.4605 21.5656C89.4605 21.8234 89.7251 22.0344 90.0481 22.0344C90.371 22.0344 90.4815 21.8234 90.2928 21.5656C90.1041 21.3077 89.84 21.0968 89.7052 21.0968C89.5703 21.0968 89.4605 21.3077 89.4605 21.5656Z" fill="#F2F2F2"/>
</svg>
